<?xml version="1.0" encoding="utf-8"?>
<!-- Generator: Adobe Illustrator 24.1.1, SVG Export Plug-In . SVG Version: 6.00 Build 0)  -->
<svg version="1.1" id="Layer_1" xmlns="http://www.w3.org/2000/svg" xmlns:xlink="http://www.w3.org/1999/xlink" x="0px" y="0px"
	 viewBox="0 0 600.63 71.95" style="enable-background:new 0 0 600.63 71.95;" xml:space="preserve">
<style type="text/css">
	.st0{fill:#FFFFFF;}
	.st1{font-family:'RobotoSlab-Bold';}
	.st2{font-size:58px;}
	.st3{font-family:'Gilroy-ExtraBold';}
	.st4{fill:#FFFFFF;stroke:#FFFFFF;stroke-miterlimit:10;}
</style>
<text transform="matrix(1 0 0 1 -1.220703e-04 54.561)" class="st0 st1 st2">dovzhenko</text>
<text transform="matrix(1 0 0 1 461.201 54.561)" class="st0 st3 st2">kino</text>
<g>
	<g>
		<g>
			<path class="st4" d="M415.35,8.6c-4.46,0-8.1,3.63-8.1,8.1s3.63,8.1,8.1,8.1s8.1-3.63,8.1-8.1S419.82,8.6,415.35,8.6z
				 M415.35,20.74c-2.23,0-4.05-1.82-4.05-4.05s1.82-4.05,4.05-4.05c2.23,0,4.05,1.82,4.05,4.05
				C419.4,18.92,417.59,20.74,415.35,20.74z"/>
		</g>
	</g>
	<g>
		<g>
			<path class="st4" d="M415.35,40.98c-4.46,0-8.1,3.63-8.1,8.1s3.63,8.1,8.1,8.1s8.1-3.63,8.1-8.1S419.82,40.98,415.35,40.98z
				 M415.35,53.13c-2.23,0-4.05-1.82-4.05-4.05c0-2.23,1.82-4.05,4.05-4.05c2.23,0,4.05,1.82,4.05,4.05
				C419.4,51.31,417.59,53.13,415.35,53.13z"/>
		</g>
	</g>
	<g>
		<g>
			<path class="st4" d="M399.16,24.79c-4.46,0-8.1,3.63-8.1,8.1c0,4.46,3.63,8.1,8.1,8.1s8.1-3.63,8.1-8.1
				S403.62,24.79,399.16,24.79z M399.16,36.93c-2.23,0-4.05-1.82-4.05-4.05c0-2.23,1.82-4.05,4.05-4.05c2.23,0,4.05,1.82,4.05,4.05
				C403.21,35.12,401.39,36.93,399.16,36.93z"/>
		</g>
	</g>
	<g>
		<g>
			<path class="st4" d="M431.55,24.79c-4.46,0-8.1,3.63-8.1,8.1c0,4.46,3.63,8.1,8.1,8.1s8.1-3.63,8.1-8.1
				S436.01,24.79,431.55,24.79z M431.55,36.93c-2.23,0-4.05-1.82-4.05-4.05c0-2.23,1.82-4.05,4.05-4.05c2.23,0,4.05,1.82,4.05,4.05
				C435.59,35.12,433.78,36.93,431.55,36.93z"/>
		</g>
	</g>
	<g>
		<g>
			<path class="st4" d="M415.35,28.84c-2.23,0-4.05,1.82-4.05,4.05c0,2.23,1.82,4.05,4.05,4.05c2.23,0,4.05-1.82,4.05-4.05
				C419.4,30.65,417.59,28.84,415.35,28.84z"/>
		</g>
	</g>
	<g>
		<g>
			<path class="st4" d="M447.74,61.22V30.86h-0.06C446.64,13.94,432.61,0.5,415.35,0.5c-17.9,0-32.38,14.48-32.38,32.38
				c0,17.9,14.48,32.38,32.38,32.38c12.2,0,22.79-6.71,28.34-16.68v12.63c0,4.46,3.91,8.37,8.37,8.37v-4.05
				C449.84,65.54,447.74,63.44,447.74,61.22z M415.35,61.22c-15.62,0-28.34-12.71-28.34-28.34s12.71-28.34,28.34-28.34
				c15.62,0,28.34,12.71,28.34,28.34S430.98,61.22,415.35,61.22z"/>
		</g>
	</g>
</g>
</svg>
