<?xml version="1.0" encoding="utf-8"?>
<!-- Generator: Adobe Illustrator 24.1.1, SVG Export Plug-In . SVG Version: 6.00 Build 0)  -->
<svg version="1.1" id="Layer_1" xmlns="http://www.w3.org/2000/svg" xmlns:xlink="http://www.w3.org/1999/xlink" x="0px" y="0px"
	 viewBox="0 0 653.94 79.74" style="enable-background:new 0 0 653.94 79.74;" xml:space="preserve">
<style type="text/css">
	.st0{fill:#FFFFFF;}
	.st1{font-family:'RobotoSlab-Bold';}
	.st2{font-size:58px;}
	.st3{font-family:'Gilroy-ExtraBold';}
</style>
<g>
	<text transform="matrix(1 0 0 1 0 62.351)" class="st0 st1 st2">dovzhenko</text>
	<text transform="matrix(1 0 0 1 474.2012 62.351)" class="st0 st3 st2">music</text>
	<g>
		<g>
			<path class="st0" d="M459.56,19.35c-0.57-0.43-1.31-0.57-1.99-0.37l-32.17,9.1c-0.98,0.28-1.66,1.17-1.66,2.19v30.81
				c-1.34-0.78-2.89-1.22-4.55-1.22c-5.02,0-9.1,4.08-9.1,9.1s4.08,9.1,9.1,9.1s9.1-4.08,9.1-9.1V41.09l27.61-7.82v18.7
				c-1.34-0.78-2.89-1.22-4.55-1.22c-5.02,0-9.1,4.08-9.1,9.1s4.08,9.1,9.1,9.1c5.02,0,9.1-4.08,9.1-9.1V21.16
				C460.46,20.45,460.13,19.78,459.56,19.35L459.56,19.35z M419.19,73.51c-2.51,0-4.55-2.04-4.55-4.55c0-2.51,2.04-4.55,4.55-4.55
				s4.55,2.04,4.55,4.55C423.74,71.47,421.7,73.51,419.19,73.51L419.19,73.51z M451.36,64.4c-2.51,0-4.55-2.04-4.55-4.55
				c0-2.51,2.04-4.55,4.55-4.55c2.51,0,4.55,2.04,4.55,4.55C455.91,62.36,453.87,64.4,451.36,64.4L451.36,64.4z M455.91,28.55
				l-27.61,7.82v-4.37l27.61-7.82V28.55z M455.91,28.55"/>
			<path class="st0" d="M419.19,78.43c-5.23,0-9.48-4.25-9.48-9.48c0-5.23,4.25-9.48,9.48-9.48c1.45,0,2.88,0.33,4.18,0.97V30.27
				c0-1.18,0.79-2.23,1.93-2.55l32.17-9.1c0.79-0.22,1.66-0.06,2.32,0.44l0,0c0.66,0.5,1.05,1.29,1.05,2.11v38.69
				c0,5.23-4.25,9.48-9.48,9.48c-5.23,0-9.48-4.25-9.48-9.48c0-5.23,4.25-9.48,9.48-9.48c1.45,0,2.88,0.33,4.18,0.97V33.77
				l-26.86,7.6v27.58C428.67,74.18,424.42,78.43,419.19,78.43z M419.19,60.23c-4.81,0-8.73,3.92-8.73,8.73
				c0,4.81,3.92,8.73,8.73,8.73c4.81,0,8.73-3.92,8.73-8.73V40.81l28.36-8.03v19.84l-0.56-0.33c-1.32-0.77-2.83-1.17-4.36-1.17
				c-4.81,0-8.73,3.92-8.73,8.73c0,4.81,3.92,8.73,8.73,8.73c4.81,0,8.73-3.92,8.73-8.73V21.16c0-0.59-0.28-1.16-0.75-1.52l0,0
				c-0.47-0.36-1.1-0.48-1.67-0.31l-32.17,9.1c-0.81,0.23-1.38,0.98-1.38,1.83v31.46l-0.56-0.33
				C422.23,60.63,420.72,60.23,419.19,60.23z M419.19,73.88c-2.72,0-4.93-2.21-4.93-4.93s2.21-4.93,4.93-4.93
				c2.72,0,4.93,2.21,4.93,4.93S421.91,73.88,419.19,73.88z M419.19,64.78c-2.3,0-4.18,1.87-4.18,4.18s1.87,4.18,4.18,4.18
				c2.3,0,4.18-1.87,4.18-4.18S421.5,64.78,419.19,64.78z M451.36,64.78c-2.72,0-4.93-2.21-4.93-4.93c0-2.72,2.21-4.93,4.93-4.93
				c2.72,0,4.93,2.21,4.93,4.93C456.28,62.57,454.07,64.78,451.36,64.78z M451.36,55.68c-2.3,0-4.18,1.87-4.18,4.18
				c0,2.3,1.87,4.18,4.18,4.18c2.3,0,4.18-1.87,4.18-4.18C455.53,57.55,453.66,55.68,451.36,55.68z M427.92,36.86V31.7l28.36-8.03
				v5.15L427.92,36.86z M428.67,32.27v3.59l26.86-7.6v-3.59L428.67,32.27z"/>
		</g>
		<g>
			<path class="st0" d="M414.54,16.53c-5.05-3.7-8.75-7.37-11.31-11.21l-2.62-3.93c-0.56-0.83-1.59-1.21-2.55-0.92
				c-0.96,0.29-1.62,1.18-1.62,2.18v35.67c-1.34-0.78-2.89-1.22-4.55-1.22c-5.02,0-9.1,4.08-9.1,9.1s4.08,9.1,9.1,9.1
				c5.02,0,9.1-4.08,9.1-9.1V10c2.72,3.5,6.29,6.86,10.86,10.21c1.75,1.28,2.8,3.34,2.8,5.51c0,3.76-3.06,6.83-6.83,6.83
				c-1.26,0-2.28,1.02-2.28,2.28c0,1.26,1.02,2.28,2.28,2.28c6.27,0,11.38-5.1,11.38-11.38C419.19,22.1,417.45,18.67,414.54,16.53
				L414.54,16.53z M391.88,50.75c-2.51,0-4.55-2.04-4.55-4.55s2.04-4.55,4.55-4.55s4.55,2.04,4.55,4.55S394.39,50.75,391.88,50.75
				L391.88,50.75z M391.88,50.75"/>
			<path class="st0" d="M391.88,55.68c-5.23,0-9.48-4.25-9.48-9.48c0-5.23,4.25-9.48,9.48-9.48c1.45,0,2.88,0.33,4.18,0.97V2.65
				c0-1.18,0.76-2.2,1.88-2.54c1.12-0.34,2.32,0.09,2.97,1.07l2.62,3.93c2.53,3.8,6.2,7.44,11.22,11.11l0,0
				c3.01,2.21,4.81,5.75,4.81,9.48c0,6.48-5.27,11.75-11.75,11.75c-1.46,0-2.65-1.19-2.65-2.65s1.19-2.65,2.65-2.65
				c3.56,0,6.45-2.89,6.45-6.45c0-2.05-0.99-4-2.64-5.21c-4.24-3.11-7.61-6.21-10.26-9.44V46.2
				C401.36,51.42,397.11,55.68,391.88,55.68z M391.88,37.47c-4.81,0-8.73,3.92-8.73,8.73c0,4.81,3.92,8.73,8.73,8.73
				c4.81,0,8.73-3.92,8.73-8.73V8.9l0.67,0.86c2.7,3.48,6.23,6.8,10.78,10.14c1.85,1.35,2.95,3.53,2.95,5.81
				c0,3.97-3.23,7.2-7.2,7.2c-1.05,0-1.9,0.85-1.9,1.9s0.85,1.9,1.9,1.9c6.07,0,11-4.94,11-11c0-3.49-1.68-6.81-4.5-8.88l0,0
				c-5.09-3.73-8.81-7.42-11.4-11.3l-2.62-3.93c-0.47-0.7-1.32-1.01-2.13-0.76c-0.81,0.24-1.35,0.98-1.35,1.82v36.32l-0.56-0.33
				C394.92,37.88,393.41,37.47,391.88,37.47z M391.88,51.12c-2.72,0-4.93-2.21-4.93-4.93s2.21-4.93,4.93-4.93
				c2.72,0,4.93,2.21,4.93,4.93S394.6,51.12,391.88,51.12z M391.88,42.02c-2.3,0-4.18,1.87-4.18,4.18s1.87,4.18,4.18,4.18
				c2.3,0,4.18-1.87,4.18-4.18S394.18,42.02,391.88,42.02z"/>
		</g>
	</g>
</g>
</svg>
