<?xml version="1.0" encoding="utf-8"?>
<!-- Generator: Adobe Illustrator 24.1.1, SVG Export Plug-In . SVG Version: 6.00 Build 0)  -->
<svg version="1.1" id="Layer_1" xmlns="http://www.w3.org/2000/svg" xmlns:xlink="http://www.w3.org/1999/xlink" x="0px" y="0px"
	 viewBox="0 0 896.46 67.01" style="enable-background:new 0 0 896.46 67.01;" xml:space="preserve">
<style type="text/css">
	.st0{fill:#FFFFFF;}
	.st1{font-family:'RobotoSlab-Bold';}
	.st2{font-size:58px;}
	.st3{font-family:'Gilroy-ExtraBold';}
</style>
<text transform="matrix(1 0 0 1 -6.103516e-05 49.6171)" class="st0 st1 st2">dovzhenko</text>
<text transform="matrix(1 0 0 1 480.2012 49.6171)" class="st0 st3 st2">performance</text>
<g>
	<path class="st0" d="M415.65,29.1c0,4.69,3.81,8.5,8.5,8.5c4.69,0,8.5-3.81,8.5-8.5s-3.81-8.5-8.5-8.5
		C419.46,20.6,415.65,24.41,415.65,29.1z"/>
	<path class="st0" d="M465.01,27.82c-4.07-7.04-9.93-12.95-16.94-17.08c-7.22-4.25-15.48-6.51-23.91-6.51c-0.01,0-0.01,0-0.02,0
		c-0.01,0-0.01,0-0.02,0c-8.42,0-16.69,2.25-23.91,6.51c-7.01,4.13-12.87,10.04-16.94,17.08l-0.74,1.28l0.74,1.28
		c4.07,7.04,9.93,12.95,16.94,17.08c7.22,4.25,15.48,6.51,23.91,6.51c0.01,0,0.01,0,0.02,0c0.01,0,0.01,0,0.02,0
		c8.42,0,16.69-2.25,23.91-6.51c7.01-4.13,12.87-10.04,16.94-17.08l0.74-1.28L465.01,27.82z M443.91,29.1
		c0,10.89-8.86,19.76-19.75,19.77c-0.01,0-0.01,0-0.02,0s-0.01,0-0.02,0c-10.89-0.01-19.75-8.87-19.75-19.77s8.86-19.76,19.75-19.77
		c0.01,0,0.01,0,0.02,0s0.01,0,0.02,0C435.06,9.34,443.91,18.21,443.91,29.1z M388.46,29.1c3.9-6.22,9.31-11.22,15.6-14.64
		c-3,4.11-4.78,9.17-4.78,14.64s1.78,10.53,4.78,14.64C397.78,40.32,392.36,35.32,388.46,29.1z M444.23,43.74
		c3-4.11,4.78-9.17,4.78-14.64s-1.78-10.53-4.78-14.64c6.28,3.42,11.7,8.42,15.6,14.64C455.93,35.32,450.52,40.32,444.23,43.74z"/>
</g>
</svg>
