<?xml version="1.0" encoding="utf-8"?>
<!-- Generator: Adobe Illustrator 24.1.1, SVG Export Plug-In . SVG Version: 6.00 Build 0)  -->
<svg version="1.1" id="Layer_1" xmlns="http://www.w3.org/2000/svg" xmlns:xlink="http://www.w3.org/1999/xlink" x="0px" y="0px"
	 viewBox="0 0 635.72 73.45" style="enable-background:new 0 0 635.72 73.45;" xml:space="preserve">
<style type="text/css">
	.st0{fill:#FFFFFF;}
	.st1{font-family:'RobotoSlab-Bold';}
	.st2{font-size:58px;}
	.st3{font-family:'Gilroy-ExtraBold';}
</style>
<g>
	<text transform="matrix(1 0 0 1 0 56.0651)" class="st0 st1 st2">dovzhenko</text>
	<text transform="matrix(1 0 0 1 469.2012 56.0651)" class="st0 st3 st2">talks</text>
	<g>
		<g>
			<path class="st0" d="M450.03,51.77c1.5-3.17,2.27-6.57,2.27-10.12c0-12.67-10.05-23.04-22.65-23.65
				c-2.84-10.22-12.16-17.35-22.82-17.35c-13.13,0-23.82,10.62-23.82,23.68c0,3.55,0.76,6.95,2.27,10.12l-2.23,11.13
				c-0.28,1.42,0.97,2.67,2.38,2.39l11.27-2.23c2.82,1.34,5.83,2.09,8.95,2.24c3.94,14.2,19.79,21.33,32.94,15.08
				c12.34,2.44,11.38,2.27,11.66,2.27c1.28,0,2.24-1.18,1.99-2.43L450.03,51.77z M397.91,41.81c-0.41-0.21-0.87-0.27-1.32-0.18
				l-8.96,1.77l1.77-8.83c0.09-0.45,0.03-0.91-0.18-1.32c-1.42-2.78-2.14-5.78-2.14-8.92c0-10.82,8.86-19.62,19.76-19.62
				c8.51,0,16.01,5.54,18.63,13.45c-12.41,1.59-21.76,12.78-20.56,25.7C402.45,43.62,400.11,42.94,397.91,41.81L397.91,41.81z
				 M445.91,51.89l1.77,8.83l-8.96-1.77c-0.45-0.09-0.91-0.02-1.32,0.18c-2.78,1.42-5.78,2.14-8.92,2.14
				c-10.82,0-19.62-8.8-19.62-19.62s8.8-19.62,19.62-19.62c10.89,0,19.76,8.8,19.76,19.62c0,3.14-0.72,6.14-2.14,8.92
				C445.89,50.98,445.82,51.44,445.91,51.89z"/>
			<path class="st0" d="M428.52,65.99c-3.45,0-6.91-0.74-10.15-2.22c-6.42-2.93-11.21-8.44-13.21-15.16
				c-2.98-0.2-5.85-0.93-8.54-2.18l-11.06,2.19c-0.88,0.17-1.78-0.1-2.42-0.74c-0.63-0.63-0.91-1.54-0.73-2.42l2.18-10.92
				c-1.48-3.2-2.24-6.63-2.24-10.2C382.36,10.91,393.33,0,406.82,0c10.74,0,20.26,7.12,23.32,17.38
				c12.82,0.86,22.8,11.43,22.8,24.27c0,3.57-0.75,7-2.24,10.2l2.18,10.92c0.16,0.79-0.04,1.6-0.56,2.22
				c-0.51,0.62-1.27,0.98-2.07,0.98c-0.22,0.01-0.22,0.01-5.07-0.95l-6.51-1.29C435.46,65.24,432,65.99,428.52,65.99z M438.51,62.39
				l6.93,1.37c3.64,0.72,4.62,0.92,4.76,0.93c0.47,0,0.86-0.19,1.12-0.51c0.26-0.32,0.37-0.74,0.29-1.15l-2.27-11.34l0.09-0.19
				c1.46-3.08,2.2-6.39,2.2-9.84c0-12.3-9.68-22.41-22.03-23l-0.47-0.02l-0.13-0.45c-2.76-9.93-11.88-16.87-22.2-16.87
				c-12.77,0-23.17,10.33-23.17,23.03c0,3.45,0.74,6.76,2.2,9.84l0.09,0.19l-2.27,11.34c-0.09,0.46,0.05,0.91,0.38,1.24
				c0.33,0.33,0.78,0.47,1.24,0.38l11.48-2.27l0.19,0.09c2.74,1.3,5.67,2.03,8.71,2.17l0.47,0.02l0.13,0.45
				c1.82,6.56,6.42,11.94,12.63,14.78c6.21,2.84,13.28,2.8,19.41-0.11L438.51,62.39z M428.48,61.92c-11.18,0-20.27-9.09-20.27-20.27
				s9.09-20.27,20.27-20.27c11.25,0,20.41,9.09,20.41,20.27c0,3.25-0.74,6.35-2.21,9.21c-0.14,0.28-0.19,0.6-0.12,0.9l1.96,9.78
				l-9.92-1.96c-0.31-0.06-0.62-0.02-0.9,0.12C434.82,61.18,431.72,61.92,428.48,61.92z M428.48,22.68
				c-10.46,0-18.97,8.51-18.97,18.97s8.51,18.97,18.97,18.97c3.04,0,5.94-0.7,8.62-2.07c0.53-0.27,1.15-0.36,1.74-0.24l8.01,1.58
				l-1.57-7.88c-0.12-0.59-0.03-1.21,0.24-1.75c1.37-2.68,2.07-5.58,2.07-8.62C447.58,31.19,439.01,22.68,428.48,22.68z
				 M405.62,44.58l-0.78-0.08c-2.53-0.24-4.96-0.95-7.23-2.11c-0.28-0.14-0.59-0.18-0.9-0.13l-9.92,1.96l1.96-9.78
				c0.06-0.3,0.02-0.62-0.12-0.9c-1.47-2.87-2.21-5.97-2.21-9.22c0-11.18,9.15-20.27,20.41-20.27c8.76,0,16.5,5.59,19.25,13.9
				l0.25,0.75l-0.78,0.1c-12.37,1.58-21.15,12.56-19.99,24.99L405.62,44.58z M396.98,40.94c0.42,0,0.84,0.1,1.22,0.29l0,0
				c1.89,0.97,3.9,1.6,5.99,1.89c-0.76-12.54,8.01-23.5,20.39-25.49c-2.78-7.37-9.81-12.27-17.75-12.27
				c-10.54,0-19.11,8.51-19.11,18.97c0,3.04,0.7,5.94,2.07,8.62c0.27,0.54,0.36,1.16,0.24,1.75l-1.57,7.88l8.01-1.58
				C396.63,40.96,396.81,40.94,396.98,40.94z"/>
		</g>
	</g>
</g>
</svg>
