<?xml version="1.0" encoding="utf-8"?>
<!-- Generator: Adobe Illustrator 24.1.1, SVG Export Plug-In . SVG Version: 6.00 Build 0)  -->
<svg version="1.1" id="Layer_1" xmlns="http://www.w3.org/2000/svg" xmlns:xlink="http://www.w3.org/1999/xlink" x="0px" y="0px"
	 viewBox="0 0 643.27 72.09" style="enable-background:new 0 0 643.27 72.09;" xml:space="preserve">
<style type="text/css">
	.st0{fill:#FFFFFF;}
	.st1{font-family:'RobotoSlab-Bold';}
	.st2{font-size:58px;}
	.st3{font-family:'Gilroy-ExtraBold';}
</style>
<g>
	<text transform="matrix(1 0 0 1 -2.441406e-04 54.7039)" class="st0 st1 st2">dovzhenko</text>
	<text transform="matrix(1 0 0 1 474.2009 54.7039)" class="st0 st3 st2">teatr</text>
	<g>
		<path class="st0" d="M457.44,4.33C457.18,4.15,450.95,0,435.68,0c-15.27,0-21.5,4.15-21.76,4.33c-0.62,0.43-0.99,1.13-0.99,1.89
			v4.55c-3.48,0.69-8.13,2.07-13.89,4.78c-13.82,6.48-17.7,12.89-17.86,13.16c-0.38,0.65-0.42,1.45-0.1,2.13l9.31,19.84
			c4.58,9.75,14.32,15.69,24.68,15.69c2.3,0,4.62-0.29,6.93-0.9c0.01,0,0.01,0,0.02-0.01h0c0.26-0.07,0.51-0.19,0.73-0.35
			c4.06-2.9,7.11-6.74,9.03-11.05c1.13,0.36,2.29,0.66,3.48,0.88c0.07,0.01,0.14,0.02,0.21,0.03h0c0.07,0.01,0.14,0.01,0.21,0.01
			c0.14,0,0.28-0.01,0.41-0.04c12.94-2.38,22.34-13.66,22.34-26.82V6.22C458.43,5.46,458.06,4.76,457.44,4.33z M394.54,48.74
			l-8.73-18.6c1.52-1.8,5.79-6.04,15.17-10.44c9.39-4.4,15.37-4.97,17.73-4.99l8.73,18.6c4.59,9.79,1.64,21.43-7.01,27.85
			C409.97,63.69,399.13,58.52,394.54,48.74z M453.85,28.14c0,10.81-7.62,20.09-18.17,22.24c-0.81-0.16-1.61-0.37-2.38-0.62
			c1.1-4.27,1.17-8.8,0.11-13.2c2.84-0.79,6.01-0.07,8.24,2.16c0.45,0.45,1.03,0.67,1.62,0.67c0.59,0,1.17-0.22,1.62-0.67
			c0.89-0.89,0.89-2.34,0-3.24c-3.49-3.49-8.49-4.58-12.93-3.27c-0.12-0.28-0.25-0.57-0.38-0.85l-3.71-7.92
			c1.85-0.02,3.59-0.74,4.9-2.05c0.89-0.89,0.89-2.34,0-3.24s-2.34-0.89-3.24,0c-0.46,0.46-1.07,0.71-1.72,0.71
			c-0.65,0-1.26-0.25-1.72-0.71c-0.28-0.28-0.62-0.48-0.98-0.58l-2.84-6.05c-0.32-0.68-0.96-1.17-1.7-1.29
			c-0.11-0.02-1.14-0.17-3.06-0.06V7.59c2.12-0.98,7.78-3.01,18.17-3.01c10.37,0,16.03,2.03,18.17,3.01V28.14z"/>
		<path class="st0" d="M444.53,23.44c1.87,0,3.63-0.73,4.96-2.05c0.89-0.89,0.89-2.34,0-3.24c-0.89-0.89-2.34-0.89-3.24,0
			c-0.46,0.46-1.07,0.71-1.72,0.71c-0.65,0-1.26-0.25-1.72-0.71c-0.89-0.89-2.34-0.89-3.24,0c-0.89,0.89-0.89,2.34,0,3.24
			C440.9,22.71,442.66,23.44,444.53,23.44z"/>
		<path class="st0" d="M406.18,37.63c0.43-1.19-0.19-2.5-1.38-2.93c-1.76-0.64-3.66-0.55-5.36,0.25c-1.69,0.8-2.98,2.2-3.61,3.96
			c-0.43,1.19,0.19,2.5,1.38,2.93c0.26,0.09,0.52,0.14,0.78,0.14c0.94,0,1.82-0.58,2.15-1.51c0.22-0.61,0.67-1.1,1.25-1.37
			c0.59-0.28,1.25-0.31,1.86-0.09C404.43,39.43,405.75,38.82,406.18,37.63z"/>
		<path class="st0" d="M412.34,34.74c0.26,0.09,0.52,0.14,0.78,0.14c0.94,0,1.82-0.58,2.15-1.51c0.22-0.61,0.67-1.1,1.25-1.37
			c0.59-0.28,1.25-0.31,1.86-0.09c1.19,0.43,2.5-0.19,2.93-1.38c0.43-1.19-0.19-2.5-1.38-2.93c-3.63-1.31-7.66,0.58-8.97,4.21
			C410.53,32.99,411.15,34.31,412.34,34.74z"/>
		<path class="st0" d="M422.43,43.72c0.43-1.19-0.19-2.5-1.38-2.93c-1.19-0.43-2.5,0.19-2.93,1.38c-1.58,4.38-6.43,6.66-10.81,5.07
			c-1.19-0.43-2.5,0.19-2.93,1.38c-0.43,1.19,0.19,2.5,1.38,2.93c1.46,0.53,2.95,0.78,4.41,0.78
			C415.5,52.32,420.52,49.02,422.43,43.72z"/>
	</g>
</g>
</svg>
